<?xml version="1.0" encoding="UTF-8" standalone="no"?>
<svg
   id="Isolation_Mode"
   data-name="Isolation Mode"
   viewBox="0 0 24 24"
   width="512"
   height="512"
   version="1.1"
   sodipodi:docname="logosnf.svg"
   xml:space="preserve"
   inkscape:version="1.3 (0e150ed6c4, 2023-07-21)"
   inkscape:export-filename="..\..\..\..\Users\johnm\OneDrive\Desktop\logosnf.svg"
   inkscape:export-xdpi="96"
   inkscape:export-ydpi="96"
   xmlns:inkscape="http://www.inkscape.org/namespaces/inkscape"
   xmlns:sodipodi="http://sodipodi.sourceforge.net/DTD/sodipodi-0.dtd"
   xmlns="http://www.w3.org/2000/svg"
   xmlns:svg="http://www.w3.org/2000/svg"><defs
     id="defs1" /><sodipodi:namedview
     id="namedview1"
     pagecolor="#ffffff"
     bordercolor="#000000"
     borderopacity="0.25"
     inkscape:showpageshadow="2"
     inkscape:pageopacity="0.0"
     inkscape:pagecheckerboard="0"
     inkscape:deskcolor="#d1d1d1"
     inkscape:zoom="0.56969052"
     inkscape:cx="241.35912"
     inkscape:cy="281.73191"
     inkscape:window-width="1920"
     inkscape:window-height="1081"
     inkscape:window-x="-9"
     inkscape:window-y="-9"
     inkscape:window-maximized="1"
     inkscape:current-layer="Isolation_Mode" /><rect
     style="fill:#526afe;fill-opacity:1;stroke:none;stroke-width:0.10311;stroke-linejoin:round;stroke-opacity:1"
     id="rect2"
     width="21.640039"
     height="21.640039"
     x="1.3165042"
     y="1.1519413"
     ry="3.5381045" /><path
     id="path1-4"
     style="fill:#ffffff;fill-opacity:1;stroke-width:0.720244"
     d="M 11.835438,3.1541147 A 7.2103606,7.2103606 0 0 0 4.6329775,10.356575 c 0,1.398056 0.818068,2.987239 1.885761,4.467719 0.012856,-0.01568 0.023797,-0.03244 0.038447,-0.04708 v -7.92e-4 L 8.4688598,12.863887 C 7.0384131,10.95231 7.4284871,8.2430586 9.3400631,6.8126115 11.251639,5.3821646 13.960891,5.7721731 15.391338,7.6837487 c 1.430447,1.9115756 1.040438,4.6208283 -0.871137,6.0512753 -1.535536,1.149056 -3.644583,1.149056 -5.1801379,0 l -1.9125325,1.912532 c -0.053817,0.05382 -0.1158303,0.09379 -0.1812695,0.123507 1.7288876,2.132884 3.7442869,3.873396 4.1239059,4.195714 l 0.465275,0.393268 0.465274,-0.393268 c 0.687111,-0.583397 6.737186,-5.805883 6.737186,-9.610204 A 7.2103606,7.2103606 0 0 0 11.835438,3.1541147 Z m 0.05671,4.6609892 c -0.223079,-0.00189 -0.453398,0.0099 -0.512026,0.026178 l -0.106362,0.029607 0.09522,0.099438 c 0.14863,0.1552973 0.291292,0.5033305 0.31137,0.7633907 0.01403,0.174842 -0.0016,0.2978505 -0.06311,0.5006846 -0.07229,0.2379937 -0.110168,0.2973525 -0.329569,0.5167741 -0.219423,0.2194111 -0.278777,0.2572767 -0.516774,0.3295697 -0.202834,0.06163 -0.325879,0.07716 -0.500685,0.06311 C 10.010144,10.122978 9.6620085,9.9810204 9.5068233,9.8324805 L 9.407385,9.7373287 9.3781719,9.8437563 c -0.051951,0.1897817 -0.027924,0.8290227 0.040751,1.0828717 0.1272483,0.469789 0.3642856,0.860045 0.7303551,1.202488 0.352802,0.330027 0.862172,0.572647 1.374262,0.654589 0.191698,0.03057 0.701022,-0.0063 0.94499,-0.06857 0.433805,-0.110668 0.757098,-0.299192 1.10417,-0.643907 0.350126,-0.347729 0.494308,-0.574321 0.646149,-1.014952 0.09075,-0.260344 0.101749,-0.349023 0.101878,-0.755808 2.21e-4,-0.4010339 -0.01245,-0.4992171 -0.09785,-0.7558772 C 14.089226,9.1430249 13.892722,8.8218923 13.604023,8.5331936 13.314412,8.2435845 12.992678,8.0471038 12.59263,7.9155309 12.350822,7.8360453 12.224614,7.8179633 11.892147,7.8151039 Z" /></svg>
